<?xml version="1.0" encoding="utf-8"?>
<!-- Uploaded to: SVG Repo, www.svgrepo.com, Generator: SVG Repo Mixer Tools -->
<!DOCTYPE svg PUBLIC "-//W3C//DTD SVG 1.1//EN" "http://www.w3.org/Graphics/SVG/1.1/DTD/svg11.dtd">
<svg fill="#000000" width="800px" height="800px" viewBox="0 0 1000 1000" version="1.1" xmlns="http://www.w3.org/2000/svg" xmlns:xlink="http://www.w3.org/1999/xlink"  enable-background="new 0 0 1000 1000" xml:space="preserve">

<g>
<g transform="translate(0.000000,511.000000) scale(0.100000,-0.100000)">
<path d="M3020.5,4516.9c-78.9-280-145.9-522.5-151.8-540.2c-5.9-19.7,29.6-78.9,90.7-147.9l98.6-116.3v-845.8v-847.8l-59.2-49.3c-55.2-47.3-71-96.6-236.6-745.3c-98.6-380.5-177.5-723.6-177.5-759.1c0-134.1,126.2-252.4,270.1-252.4c31.5,0,88.7,17.7,130.1,39.4l72.9,39.4V-2163c0-2429.1,0-2454.7,39.4-2494.1c53.2-53.2,110.4-49.3,167.6,9.9l49.3,47.3v1658.1c0,1563.5,2,1656.2,35.5,1656.2c17.8,0,260.3-67,536.3-145.9c276-80.8,504.7-143.9,506.7-142c2,2,37.5,209,78.9,461.3c39.4,252.4,78.9,457.4,84.8,457.4c5.9,0,41.4-189.3,78.9-418c35.5-230.7,71-439.7,76.9-461.3c11.8-41.4,15.8-41.4,297.7,41.4c244.5,71,285.9,88.7,281.9,120.3c-2,19.7-13.8,90.7-25.6,155.7c-9.9,65.1-19.7,337.2-19.7,607.3c0,341.1-5.9,487-21.7,487c-11.8,0-167.6-45.3-343.1-100.5l-323.3-100.6L4205.4-213c-193.2,61.1-360.8,110.4-370.7,110.4c-9.9,0-37.5-65.1-63.1-143.9c-41.4-130.1-262.2-560-398.3-778.8l-59.2-92.7V-15.9v1100.2l69,364.8c61.1,325.3,65.1,368.7,41.4,425.9c-13.8,35.5-45.4,80.8-69,100.6c-41.4,37.5-41.4,43.4-41.4,895.1v857.7l88.7,104.5c49.3,55.2,88.7,112.4,88.7,126.2c0,33.5-297.7,1033.1-313.5,1050.9C3170.3,5017.7,3099.3,4794.9,3020.5,4516.9z"/>
<path d="M4447.9,3404.9c-39.4-35.5-98.6-124.2-136-203.1c-84.8-177.4-236.6-648.7-266.2-832c-27.6-159.7-53.2-191.2-351-427.8l-161.7-128.2l132.1-13.8c201.1-21.7,272.1-57.2,349-179.4c116.3-179.4,287.9-264.2,544.2-264.2c252.4,0,439.7,92.7,542.2,268.1c27.6,47.3,76.9,100.6,108.4,118.3c53.2,25.6,57.2,37.5,57.2,143.9c0,98.6-7.9,126.2-61.1,191.3c-80.8,102.5-136.1,212.9-136.1,274.1c0,151.8-136,636.8-238.6,849.8C4706.2,3464,4587.9,3527.1,4447.9,3404.9z M4471.6,2697.1c-5.9-29.6-5.9-102.5,0-163.6l11.8-112.4h94.6h96.6v179.4c0,163.6,3.9,179.4,35.5,165.6c17.8-5.9,59.2-17.7,88.7-23.7c67-13.8,82.8-43.4,122.2-212.9c35.5-147.9,19.7-242.5-53.2-335.2c-98.6-126.2-343.1-167.6-508.7-82.8c-128.2,63.1-183.4,177.4-169.6,341.1c15.8,193.2,45.4,246.5,159.7,283.9C4465.7,2775.9,4485.4,2770,4471.6,2697.1z"/>
<path d="M5512.6,1918.3c-27.6-25.6-49.3-59.1-49.3-72.9c0-13.8,181.4-207,402.2-427.8l404.2-404.2l163.6-2l163.6-2l406.2,402.2c433.8,429.8,439.7,437.7,337.2,516.6c-47.3,37.5-82.8,39.4-914.8,39.4H5560L5512.6,1918.3z"/>
<path d="M3452.3,1111.9c0-309.5,5.9-563.9,13.8-563.9c5.9,0,80.8,39.4,167.6,88.7c84.8,49.3,163.6,84.8,173.5,78.9c11.8-7.9,19.7-140,19.7-313.5V100.4L4177.8-10c193.2-61.1,362.8-112.4,378.6-112.4c15.8,0,177.5,45.3,358.8,102.5l331.2,102.5v765c0,420-3.9,765-9.9,765c-3.9,0-25.6-33.5-47.3-76.9c-55.2-104.5-201.1-228.7-323.3-272.1c-76.9-25.6-161.7-35.5-329.3-35.5c-218.8,0-232.6,2-360.8,65.1c-80.8,41.4-153.8,92.7-187.3,138c-134.1,177.4-183.4,205.1-421.9,232.7l-114.4,13.8V1111.9z"/>
<path d="M5463.3,715.6v-847.8l327.3,327.3l327.3,327.3l-23.7,84.8c-17.8,69-17.8,100.6,9.9,183.4l33.5,98.6l-337.2,337.1l-337.1,337.1V715.6z"/>
<path d="M7066.3,1214.4l-341.1-341.1l31.5-88.7c23.7-67,25.6-104.5,9.9-167.6l-19.7-78.9L7080.1,203l335.2-335.2v843.9c0,463.3-2,841.9-5.9,841.9C7407.4,1553.5,7251.6,1399.7,7066.3,1214.4z"/>
<path d="M5849.8-2.1l-388.4-390.4l5.9-463.3l5.9-465.3l78.9-151.8c59.2-114.4,163.6-250.4,414-532.3c185.3-209,358.8-392.3,388.4-404.2c29.6-13.8,76.9-17.7,104.5-11.8c29.6,7.9,193.2,169.6,421.9,420c518.5,561.9,534.3,601.3,534.3,1224.4v368.7L7019-11.9l-398.3,398.3l-65.1-27.6c-82.8-35.5-169.6-35.5-252.4,0l-65.1,27.6L5849.8-2.1z"/>
<path d="M3698.7-2078.2l-13.8-496.8l-122.2-179.4c-69-96.6-130.1-187.3-138-201.1c-7.9-13.8,35.5-53.2,114.3-104.5l128.2-82.8l-11.8-745.3l-11.8-747.3l69-69c88.7-88.7,183.4-108.4,285.9-59.2c43.4,21.7,88.7,65.1,106.5,98.6c19.7,39.4,63.1,325.3,116.3,761.1l86.7,699.9l114.4,63.1c63.1,33.5,114.3,72.9,114.3,82.8c0,11.8-39.4,94.7-88.7,183.4l-88.7,163.6l31.5,408.1c15.8,224.8,27.6,429.8,23.7,457.4c-5.9,47.3-29.6,59.2-341.1,157.7c-183.4,57.2-341.1,106.5-347,106.5C3718.4-1581.4,3706.6-1804.2,3698.7-2078.2z"/>
<path d="M5029.6-1691.8l-325.3-102.5l-5.9-67c-3.9-37.5,7.9-244.5,23.7-459.4l29.6-390.4l-88.7-161.7c-47.3-88.7-86.8-171.5-86.8-183.4c0-11.8,51.3-51.3,112.4-88.7l112.4-65.1l90.7-711.8c98.6-772.9,104.5-794.6,230.7-847.8c98.6-41.4,195.2-17.7,278,65.1l69,69l-13.8,745.3l-11.8,745.3l128.2,84.8c76.9,49.3,122.2,92.7,114.3,106.5c-5.9,11.8-67,102.5-136,199.1L5427.9-2577l-13.8,433.8c-7.9,238.6-25.6,459.4-37.5,492.9l-21.7,61.1L5029.6-1691.8z"/>
</g>
</g>
</svg>