<?xml version="1.0" encoding="iso-8859-1"?>
<!-- Uploaded to: SVG Repo, www.svgrepo.com, Generator: SVG Repo Mixer Tools -->
<svg height="800px" width="800px" version="1.1" id="Layer_1" xmlns="http://www.w3.org/2000/svg" xmlns:xlink="http://www.w3.org/1999/xlink" 
	 viewBox="0 0 512 512" xml:space="preserve">
<path style="fill:#FFD46E;" d="M258.723,0.023v511.955C398.854,510.526,512,396.468,512,256S398.854,1.474,258.723,0.023z"/>
<path style="fill:#FFE9B7;" d="M258.723,0.023C373.996,1.789,466.989,115.723,466.989,256s-92.993,254.211-208.266,255.977
	c-0.9,0.011-1.812,0.022-2.723,0.022C114.62,512,0,397.38,0,256S114.62,0,256,0C256.911,0,257.823,0.011,258.723,0.023z"/>
<g>
	<circle style="fill:#FFBE26;" cx="256" cy="78.769" r="22.505"/>
	<circle style="fill:#FFBE26;" cx="203.63" cy="396.659" r="22.505"/>
</g>
<circle style="fill:#FFD46E;" cx="346.022" cy="135.033" r="33.758"/>
<path style="fill:#FFBE26;" d="M138.924,146.286l-33.758,67.516l33.758,67.516c37.288,0,67.516-30.228,67.516-67.516
	S176.212,146.286,138.924,146.286z"/>
<path style="fill:#FFD46E;" d="M71.408,213.802c0,37.288,30.228,67.516,67.516,67.516V146.286
	C101.636,146.286,71.408,176.514,71.408,213.802z"/>
<path style="fill:#FFE9B7;" d="M138.924,247.56c-18.614,0-33.758-15.144-33.758-33.758s15.144-33.758,33.758-33.758
	s33.758,15.144,33.758,33.758S157.538,247.56,138.924,247.56z"/>
<g>
	<circle style="fill:#FFD46E;" cx="172.685" cy="330.955" r="8.44"/>
	<circle style="fill:#FFD46E;" cx="384.326" cy="330.955" r="8.44"/>
	<circle style="fill:#FFD46E;" cx="138.926" cy="364.713" r="8.44"/>
</g>
</svg>